:version 1.10
:name ASF
:units
  mass 1
  length 1
  angle deg
:documentation
  ASF file generated by Kaydara
:root
  axis xyz
  order  tx ty tz rx ry rz
  position 0 0 0
  orientation 0 0 0
:bonedata
  begin
    id 1
    name abdomenDummy
    direction 1 -1.27917e-005 -1.26829e-007
    length 1.79048
    axis 0 0 0 xyz
  end
  begin
    id 2
    name abdomen
    direction 0.987238 0.159249 -9.68575e-008
    length 8.61378
    axis 2.73208e-005 5.54953e-006 9.16328 xyz
    dof rx ry rz
  end
  begin
    id 3
    name chest
    direction 0 0 0
    length 0
    axis 2.65071e-005 8.63688e-006 2.59796 xyz
    dof rx ry rz
  end
  begin
    id 4
    name neckDummyDummy
    direction 0.998972 0.0453274 -1.50742e-007
    length 9.56202
    axis 2.65071e-005 8.63688e-006 2.59796 xyz
  end
  begin
    id 5
    name neckDummy
    direction 0.99977 0.0214525 -1.61748e-007
    length 1.93574
    axis 2.62932e-005 9.26758e-006 1.22924 xyz
    dof rx ry rz
  end
  begin
    id 6
    name neck
    direction 0.99928 -0.0379406 -1.88707e-007
    length 3.70367
    axis 2.56966e-005 1.08122e-005 -2.17436 xyz
    dof rx ry rz
  end
  begin
    id 7
    name head
    direction 0.992648 -0.121037 -2.25408e-007
    length 6.35158
    axis 2.47068e-005 1.29149e-005 -6.95196 xyz
    dof rx ry rz
  end
  begin
    id 8
    name figureHair
    direction -0.86681 -0.498639 -7.83376e-008
    length 8.29884
    axis -2.7515e-005 4.48842e-006 -150.09 xyz
    dof rx ry rz
  end
  begin
    id 9
    name lCollarDummy
    direction 0.994611 0.0451299 -0.0933417
    length 9.60395
    axis 2.65071e-005 8.63688e-006 2.59796 xyz
  end
  begin
    id 10
    name lCollar
    direction 0.0384146 0.00127577 -0.999261
    length 6.95318
    axis 90.4899 87.7973 1.90202 xyz
    dof rx ry rz
  end
  begin
    id 11
    name lShldr
    direction -0.030648 0.0920515 -0.995282
    length 9.61158
    axis -161.793 84.4324 108.415 xyz
    dof rx ry rz
  end
  begin
    id 12
    name lForeArm
    direction 0.000163956 -0.0977586 -0.99521
    length 8.6068
    axis 0.134773 84.3899 -89.8525 xyz
    dof rx ry rz
  end
  begin
    id 13
    name lHand
    direction -0.0190533 -0.1444 -0.989336
    length 7.61479
    axis -7.3729 81.6249 -97.517 xyz
    dof rx ry rz
  end
  begin
    id 14
    name rCollarDummy
    direction 0.994871 0.0442627 0.0909555
    length 9.60761
    axis 2.65071e-005 8.63688e-006 2.59796 xyz
  end
  begin
    id 15
    name rCollar
    direction 0.0334251 -4.74072e-007 0.999441
    length 6.97058
    axis -178.152 -88.0845 -0.000674207 xyz
    dof rx ry rz
  end
  begin
    id 16
    name rShldr
    direction -0.026922 0.0719509 0.997045
    length 9.60913
    axis 71.2822 -85.594 110.514 xyz
    dof rx ry rz
  end
  begin
    id 17
    name rForeArm
    direction 0.00134679 -0.118986 0.992895
    length 8.57176
    axis -88.7923 -83.1659 -89.3516 xyz
    dof rx ry rz
  end
  begin
    id 18
    name rHand
    direction -0.0185183 -0.0768601 0.99687
    length 7.69687
    axis -74.5596 -85.4655 -103.546 xyz
    dof rx ry rz
  end
  begin
    id 19
    name lThighDummy
    direction -0.236086 -0.0385456 -0.970967
    length 4.99155
    axis 0 0 0 xyz
  end
  begin
    id 20
    name lThigh
    direction -0.993968 0.0148998 -0.108653
    length 13.572
    axis -91.4001 6.23768 179.141 xyz
    dof rx ry rz
  end
  begin
    id 21
    name lShin
    direction -0.992341 0.0904576 -0.0841193
    length 18.5862
    axis -91.4558 4.82538 174.792 xyz
    dof rx ry rz
  end
  begin
    id 22
    name lFoot
    direction 0.0209381 -0.999771 -0.00453005
    length 8.44474
    axis 4.86759 0.259522 -88.8001 xyz
    dof rx ry rz
  end
  begin
    id 23
    name rThighDummy
    direction -0.236086 -0.0385456 0.970967
    length 4.99155
    axis 0 0 0 xyz
  end
  begin
    id 24
    name rThigh
    direction -0.993968 0.0148995 0.108653
    length 13.5721
    axis -89.7059 -6.2377 179.141 xyz
    dof rx ry rz
  end
  begin
    id 25
    name rShin
    direction -0.9925 0.0899962 0.0827255
    length 18.6716
    axis -89.2745 -4.74775 174.819 xyz
    dof rx ry rz
  end
  begin
    id 26
    name rFoot
    direction 0.0301721 -0.999545 9.70865e-005
    length 8.45013
    axis -2.50066e-005 -0.00555246 -88.271 xyz
    dof rx ry rz
  end
:hierarchy
  begin
    root abdomenDummy lThighDummy rThighDummy
    abdomenDummy abdomen
    abdomen chest
    chest neckDummyDummy lCollarDummy rCollarDummy
    neckDummyDummy neckDummy
    neckDummy neck
    neck head
    head figureHair
    lCollarDummy lCollar
    lCollar lShldr
    lShldr lForeArm
    lForeArm lHand
    rCollarDummy rCollar
    rCollar rShldr
    rShldr rForeArm
    rForeArm rHand
    lThighDummy lThigh
    lThigh lShin
    lShin lFoot
    rThighDummy rThigh
    rThigh rShin
    rShin rFoot
  end

:SAMPLES-PER-SECOND 25
:FULLY-SPECIFIED
:DEGREES
32
root  74.435 35.9829 1.73264 -179.582 3.07369 88.4665
abdomen  0.619074 -1.26642 -9.23775
chest  0.860334 0.237251 -6.42007
neckDummy  3.03321e-021 0 6.73878e-016
neck  1.52971 11.8255 14.8827
head  -3.43272 -11.3281 -6.50293
figureHair  0 0 -1.04948e-014
lCollar  -3.38943e-016 -6.49156e-016 -7.51406e-014
lShldr  5.0708 12.3778 -82.6899
lForeArm  34.7286 -14.3739 -1.73197
lHand  0.254698 0.195082 5.2986
rCollar  2.67893e-016 -5.20816e-014 1.63997e-015
rShldr  -1.60971 79.2449 -8.14064
rForeArm  -10.4912 2.44126 9.89228
rHand  -0.207983 -21.0583 5.50305
lThigh  -14.2194 -26.9585 -1.61231
lShin  -0.0617367 41.9003 2.6141
lFoot  -1.06395 0.0905433 -3.10774
rThigh  13.3486 -1.3775 -3.29127
rShin  8.69562 15.4213 5.59486
rFoot  -3.33598 1.40866 8.74516
33
root  73.8639 35.9753 1.98227 -178.954 3.53353 89.011
abdomen  0.892451 -1.82769 -9.01012
chest  1.35969 1.55737 -6.02333
neckDummy  3.03321e-021 0 6.73878e-016
neck  0.351237 11.3076 13.1529
head  -4.26255 -11.3369 -5.41679
figureHair  0 0 -1.04948e-014
lCollar  -3.38943e-016 -6.49156e-016 -7.51406e-014
lShldr  6.23042 13.8985 -83.5295
lForeArm  36.5541 -11.3707 -3.12972
lHand  0.254698 0.195082 5.2986
rCollar  2.67893e-016 -5.20816e-014 1.63997e-015
rShldr  -1.7461 79.384 -3.24236
rForeArm  -9.84043 2.74136 11.421
rHand  -0.275492 -21.9986 5.79942
lThigh  -14.2137 -27.8802 -1.08802
lShin  -0.375618 38.6715 2.48124
lFoot  -0.299419 0.0259394 -2.76548
rThigh  13.6637 -0.298046 -4.07494
rShin  8.82767 14.6168 5.55156
rFoot  -2.79926 1.33223 9.02689
34
root  73.2349 35.9171 2.28172 -178.317 3.78465 89.4852
abdomen  1.11429 -2.60808 -8.72739
chest  1.82579 2.9837 -5.93544
neckDummy  3.03321e-021 0 6.73878e-016
neck  -0.459666 11.061 12.5646
head  -4.91611 -11.4329 -5.0154
figureHair  0 0 -1.04948e-014
lCollar  -3.38943e-016 -6.49156e-016 -7.51406e-014
lShldr  6.27709 15.4046 -83.5988
lForeArm  38.0816 -9.12101 -4.16911
lHand  0.254698 0.195082 5.2986
rCollar  2.67893e-016 -5.20816e-014 1.63997e-015
rShldr  -3.48924 78.3276 1.53765
rForeArm  -8.85858 2.36682 13.9498
rHand  -0.211982 -21.9732 5.49835
lThigh  -14.4827 -27.879 -0.436033
lShin  0.467385 33.6366 2.29652
lFoot  0.107002 -0.0082701 -2.354
rThigh  13.9532 0.937448 -4.7522
rShin  8.62621 13.9432 5.504
rFoot  -1.77168 1.17013 9.48465
35
root  72.562 35.8024 2.62305 -177.395 3.84313 90.0437
abdomen  1.21734 -2.96307 -8.53347
chest  2.04254 3.68974 -5.67822
neckDummy  3.03321e-021 0 6.73878e-016
neck  -1.58897 10.448 12.9226
head  -5.63533 -9.88985 -6.06268
figureHair  0 0 -1.04948e-014
lCollar  -3.38943e-016 -6.49156e-016 -7.51406e-014
lShldr  6.32043 16.9439 -83.1791
lForeArm  37.7272 -8.04519 -4.50754
lHand  0.254698 0.195082 5.2986
rCollar  2.67893e-016 -5.20816e-014 1.63997e-015
rShldr  -6.05318 76.2723 5.13177
rForeArm  -7.28578 1.52589 16.8073
rHand  -0.159472 -21.6335 5.25606
lThigh  -15.3944 -27.5479 0.193715
lShin  1.67805 27.7448 2.12863
lFoot  0.366689 -0.0340279 -2.61104
rThigh  14.1081 2.12813 -5.23234
rShin  8.81209 13.4252 5.45495
rFoot  -0.453315 0.949117 10.0664
36
root  71.8204 35.6449 3.01568 -176.106 3.79988 90.6014
abdomen  1.1497 -2.90619 -8.37249
chest  1.99449 3.8845 -5.24976
neckDummy  3.03321e-021 0 6.73878e-016
neck  -1.80417 10.4878 12.2675
head  -5.91435 -10.4361 -4.9144
figureHair  0 0 -1.04948e-014
lCollar  -3.38943e-016 -6.49156e-016 -7.51406e-014
lShldr  6.10436 18.1405 -82.3939
lForeArm  36.5975 -7.67082 -4.49195
lHand  0.254698 0.195082 5.2986
rCollar  2.67893e-016 -5.20816e-014 1.63997e-015
rShldr  -8.50203 73.8087 6.25282
rForeArm  -5.64551 1.05851 19.9826
rHand  -0.113346 -21.5878 5.03483
lThigh  -16.9578 -27.1925 0.697611
lShin  1.23293 22.4245 1.73152
lFoot  1.30819 -0.110409 -2.9547
rThigh  14.324 3.52193 -5.6392
rShin  9.7723 12.9688 5.55852
rFoot  0.135368 0.876513 10.6798
37
root  71.0102 35.4481 3.47508 -174.616 3.7729 90.8718
abdomen  0.922918 -2.73705 -8.27946
chest  1.77812 4.058 -5.08394
neckDummy  3.03321e-021 0 6.73878e-016
neck  -1.88485 10.5968 11.8878
head  -6.09453 -11.4775 -4.2385
figureHair  0 0 -1.04948e-014
lCollar  -3.38943e-016 -6.49156e-016 -7.51406e-014
lShldr  6.03158 18.6489 -81.2665
lForeArm  35.5107 -7.9846 -4.30226
lHand  0.254698 0.195082 5.2986
rCollar  2.67893e-016 -5.20816e-014 1.63997e-015
rShldr  -9.83516 71.4124 5.75125
rForeArm  -4.74993 1.05521 23.3012
rHand  -0.00930984 -21.3156 4.52984
lThigh  -16.9799 -26.8778 1.00786
lShin  -2.75644 19.0666 0.112307
lFoot  2.7489 -0.228544 -2.49064
rThigh  14.6109 5.44695 -6.12426
rShin  10.3773 12.4889 5.63281
rFoot  1.49224 0.637708 11.449
38
root  70.1456 35.2226 4.02893 -173.32 3.78218 90.9836
abdomen  0.741824 -2.68675 -8.04045
chest  1.63568 4.35565 -5.4853
neckDummy  3.03321e-021 0 6.73878e-016
neck  -2.3149 10.3249 12.5348
head  -6.45985 -11.623 -4.18711
figureHair  0 0 -1.04948e-014
lCollar  -3.38943e-016 -6.49156e-016 -7.51406e-014
lShldr  6.52715 18.1376 -79.9464
lForeArm  34.4247 -8.68866 -4.10369
lHand  0.254698 0.195082 5.2986
rCollar  2.67893e-016 -5.20816e-014 1.63997e-015
rShldr  -10.4669 69.1659 5.0309
rForeArm  -3.74711 1.02371 25.9003
rHand  0.122449 -20.8946 3.87226
lThigh  -17.5524 -26.7429 0.949877
lShin  -5.02963 18.2363 -0.984509
lFoot  3.67269 -0.355385 -3.09148
rThigh  14.8727 7.33768 -6.79263
rShin  10.3471 12.5763 5.40034
rFoot  4.12425 0.079256 12.1089
